<?xml version="1.0" encoding="UTF-8"?>
<svg xmlns="http://www.w3.org/2000/svg" viewBox="0 0 512 512" width="512" height="512">
  <title>cobble_02 — 石畳 (irregular cobblestones)</title>
  <rect width="512" height="512" fill="#2b2b2e"/>
  <g stroke="#0f0f10" stroke-width="3" stroke-linejoin="round">
    <!-- round-ish cobbles placed with slight variation -->
    <polygon points="20,14  88,4  120,40  108,96  50,104  10,70"  fill="#7d7d84"/>
    <polygon points="120,40 200,14 260,40 240,100 150,110 108,96" fill="#6b6b72"/>
    <polygon points="260,40 340,16 400,30 410,100 320,110 240,100" fill="#81818a"/>
    <polygon points="400,30 476,20 508,60 500,120 420,130 410,100" fill="#6e6e76"/>

    <polygon points="10,70   50,104  60,170  20,200  4,150"         fill="#73737a"/>
    <polygon points="50,104  108,96  160,130 150,200  80,210 60,170" fill="#82828c"/>
    <polygon points="108,96  150,110 220,120 240,190 160,200 150,130" fill="#6f6f78"/>
    <polygon points="150,110 240,100 310,130 300,180 240,190 220,120" fill="#79797f"/>
    <polygon points="240,100 320,110 380,150 360,200 300,190 300,140" fill="#6c6c74"/>
    <polygon points="320,110 410,100 440,160 430,210 360,200 380,150" fill="#7e7e87"/>
    <polygon points="410,100 500,120 508,170 500,220 430,210 440,160" fill="#7a7a82"/>

    <polygon points="4,150   20,200  40,260   4,300"                fill="#66666d"/>
    <polygon points="20,200  60,170  80,210   110,260 70,310  40,260" fill="#86868f"/>
    <polygon points="80,210  150,200 160,260  140,310 110,310 110,260" fill="#6a6a71"/>
    <polygon points="150,200 220,200 240,260  220,310 160,310 160,260" fill="#7d7d85"/>
    <polygon points="220,200 300,190 320,260  300,320 240,310 240,260" fill="#71717a"/>
    <polygon points="300,190 360,200 380,260  360,320 300,320 320,260" fill="#84848d"/>
    <polygon points="360,200 430,210 450,260  430,320 360,320 380,260" fill="#6d6d76"/>
    <polygon points="430,210 500,220 508,280  500,330 430,320 450,260" fill="#7a7a82"/>

    <polygon points="4,300   40,260  70,310  50,380  10,380"         fill="#838389"/>
    <polygon points="40,260  70,310  110,310 130,370 90,400 50,380"   fill="#6c6c75"/>
    <polygon points="110,310 160,310 170,370 150,420 90,400 130,370"  fill="#80808a"/>
    <polygon points="160,310 240,310 260,370 230,420 150,420 170,370" fill="#6e6e76"/>
    <polygon points="240,310 300,320 320,370 300,420 230,420 260,370" fill="#78787f"/>
    <polygon points="300,320 360,320 380,370 350,420 300,420 320,370" fill="#84848d"/>
    <polygon points="360,320 430,320 450,370 420,420 350,420 380,370" fill="#6d6d76"/>
    <polygon points="430,320 500,330 508,380 490,420 420,420 450,370" fill="#7d7d85"/>

    <polygon points="10,380  50,380  90,400  80,460  20,500 4,460"    fill="#6f6f78"/>
    <polygon points="50,380  90,400  150,420 140,490 80,500 80,460"   fill="#84848d"/>
    <polygon points="150,420 230,420 240,490 180,508 80,500 140,490"  fill="#6c6c74"/>
    <polygon points="230,420 300,420 320,490 260,508 180,508 240,490" fill="#7a7a82"/>
    <polygon points="300,420 350,420 380,490 320,508 260,508 320,490" fill="#86868f"/>
    <polygon points="350,420 420,420 450,490 400,508 320,508 380,490" fill="#6e6e76"/>
    <polygon points="420,420 490,420 500,490 440,508 400,508 450,490" fill="#80808a"/>
    <polygon points="490,420 508,420 508,508 440,508 500,490"          fill="#6a6a71"/>
  </g>
  <!-- moss hints -->
  <g fill="#5a8f3d" opacity="0.45">
    <circle cx="60"  cy="56"  r="3"/>
    <circle cx="210" cy="70"  r="2.5"/>
    <circle cx="300" cy="160" r="3"/>
    <circle cx="40"  cy="190" r="2.5"/>
    <circle cx="180" cy="240" r="3"/>
    <circle cx="400" cy="260" r="2.5"/>
    <circle cx="90"  cy="340" r="3"/>
    <circle cx="260" cy="400" r="2.5"/>
    <circle cx="420" cy="360" r="3"/>
    <circle cx="150" cy="460" r="2.5"/>
  </g>
</svg>
