<?xml version="1.0" encoding="UTF-8"?>
<svg xmlns="http://www.w3.org/2000/svg" viewBox="0 0 512 512" width="512" height="512">
  <title>grass_01 — 草原 (standard)</title>
  <defs>
    <pattern id="grass01-noise" x="0" y="0" width="16" height="16" patternUnits="userSpaceOnUse">
      <rect width="16" height="16" fill="#6aa84f"/>
      <circle cx="4" cy="6" r="0.8" fill="#4f7a3a" opacity="0.55"/>
      <circle cx="12" cy="11" r="0.6" fill="#8ac364" opacity="0.55"/>
    </pattern>
  </defs>
  <rect width="512" height="512" fill="#5f9c46"/>
  <rect width="512" height="512" fill="url(#grass01-noise)"/>
  <g stroke="#3e6a2b" stroke-linecap="round" stroke-width="2.2" opacity="0.78" fill="none">
    <path d="M32 96 L30 72"/>
    <path d="M40 100 L44 76"/>
    <path d="M100 180 L102 154"/>
    <path d="M108 184 L112 160"/>
    <path d="M200 60 L200 34"/>
    <path d="M208 62 L212 36"/>
    <path d="M288 240 L286 214"/>
    <path d="M296 244 L300 220"/>
    <path d="M360 340 L362 314"/>
    <path d="M368 344 L372 320"/>
    <path d="M440 120 L442 94"/>
    <path d="M448 124 L452 100"/>
    <path d="M80 420 L78 394"/>
    <path d="M88 424 L92 400"/>
    <path d="M180 460 L182 434"/>
    <path d="M188 464 L192 440"/>
    <path d="M300 420 L298 394"/>
    <path d="M308 424 L312 400"/>
    <path d="M400 460 L398 434"/>
    <path d="M408 464 L412 440"/>
  </g>
  <g fill="#8ac364" opacity="0.75">
    <circle cx="60" cy="60" r="3"/>
    <circle cx="150" cy="110" r="2.5"/>
    <circle cx="260" cy="160" r="3"/>
    <circle cx="340" cy="90" r="2.5"/>
    <circle cx="430" cy="200" r="3"/>
    <circle cx="110" cy="300" r="2.5"/>
    <circle cx="220" cy="340" r="3"/>
    <circle cx="330" cy="380" r="2.5"/>
    <circle cx="450" cy="360" r="3"/>
    <circle cx="40" cy="480" r="2.5"/>
  </g>
</svg>
