<?xml version="1.0" encoding="UTF-8"?>
<svg xmlns="http://www.w3.org/2000/svg" viewBox="0 0 512 512" width="512" height="512">
  <title>lava_01 — 溶岩 (cracked magma)</title>
  <defs>
    <radialGradient id="lava01-glow" cx="50%" cy="55%" r="70%">
      <stop offset="0"   stop-color="#ffe279"/>
      <stop offset="0.4" stop-color="#f25a1a"/>
      <stop offset="1"   stop-color="#6a1606"/>
    </radialGradient>
    <pattern id="lava01-scatter" x="0" y="0" width="28" height="28" patternUnits="userSpaceOnUse">
      <rect width="28" height="28" fill="transparent"/>
      <circle cx="6" cy="10" r="0.7" fill="#ffe279" opacity="0.65"/>
      <circle cx="20" cy="6" r="0.5" fill="#ffae3a" opacity="0.55"/>
      <circle cx="14" cy="22" r="0.6" fill="#ffcf5c" opacity="0.6"/>
    </pattern>
  </defs>
  <rect width="512" height="512" fill="url(#lava01-glow)"/>
  <rect width="512" height="512" fill="url(#lava01-scatter)"/>
  <g stroke="#241004" stroke-width="4" fill="none" opacity="0.85" stroke-linecap="round" stroke-linejoin="round">
    <path d="M0 120 L80 130 L150 80  L230 140 L300 110 L380 180 L460 150 L512 200"/>
    <path d="M0 260 L90 280 L180 230 L260 280 L340 240 L430 290 L512 260"/>
    <path d="M0 400 L80 380 L180 440 L270 400 L360 460 L450 420 L512 450"/>
    <path d="M100 0   L140 80  L100 130 L150 200"/>
    <path d="M260 0   L240 90  L290 140 L260 220"/>
    <path d="M410 0   L380 70  L440 130 L400 200"/>
    <path d="M230 140 L210 250 L260 310"/>
    <path d="M380 180 L360 280 L420 330"/>
    <path d="M180 230 L160 340 L200 420"/>
    <path d="M340 240 L320 360 L370 420"/>
  </g>
  <g fill="#ffe37d" opacity="0.85">
    <circle cx="130" cy="110" r="3.4"/>
    <circle cx="280" cy="180" r="4"/>
    <circle cx="430" cy="220" r="3"/>
    <circle cx="110" cy="320" r="3.4"/>
    <circle cx="280" cy="350" r="4"/>
    <circle cx="420" cy="380" r="3"/>
  </g>
</svg>
