<?xml version="1.0" encoding="UTF-8"?>
<svg xmlns="http://www.w3.org/2000/svg" viewBox="0 0 512 512" width="512" height="512">
  <title>sand_01 — 砂 (dunes)</title>
  <defs>
    <linearGradient id="sand01-base" x1="0" y1="0" x2="0" y2="1">
      <stop offset="0" stop-color="#e6c488"/>
      <stop offset="1" stop-color="#c79f64"/>
    </linearGradient>
    <pattern id="sand01-grain" x="0" y="0" width="10" height="10" patternUnits="userSpaceOnUse">
      <rect width="10" height="10" fill="transparent"/>
      <circle cx="2" cy="3" r="0.5" fill="#8b6639" opacity="0.35"/>
      <circle cx="7" cy="6" r="0.4" fill="#fff2c9" opacity="0.45"/>
      <circle cx="4" cy="8" r="0.3" fill="#8b6639" opacity="0.25"/>
    </pattern>
  </defs>
  <rect width="512" height="512" fill="url(#sand01-base)"/>
  <rect width="512" height="512" fill="url(#sand01-grain)"/>
  <g stroke="#a87f4d" stroke-width="1.8" fill="none" opacity="0.45" stroke-linecap="round">
    <path d="M0 120 C 120 90, 260 150, 400 110 S 512 130, 512 130"/>
    <path d="M0 220 C 140 200, 280 260, 420 220 S 512 240, 512 240"/>
    <path d="M0 330 C 120 310, 260 370, 400 320 S 512 340, 512 340"/>
    <path d="M0 430 C 140 410, 280 470, 420 420 S 512 440, 512 440"/>
  </g>
  <g stroke="#fff2c9" stroke-width="1.2" fill="none" opacity="0.5" stroke-linecap="round">
    <path d="M0 150 C 120 130, 260 180, 400 145 S 512 160, 512 160"/>
    <path d="M0 360 C 120 340, 260 400, 400 355 S 512 370, 512 370"/>
  </g>
  <g fill="#8b6639" opacity="0.45">
    <circle cx="80" cy="80" r="2"/>
    <circle cx="180" cy="200" r="1.6"/>
    <circle cx="340" cy="180" r="1.8"/>
    <circle cx="420" cy="300" r="1.6"/>
    <circle cx="120" cy="420" r="2"/>
    <circle cx="280" cy="460" r="1.6"/>
    <circle cx="470" cy="90" r="1.8"/>
  </g>
</svg>
