<?xml version="1.0" encoding="UTF-8"?>
<svg xmlns="http://www.w3.org/2000/svg" viewBox="0 0 512 512" width="512" height="512">
  <title>soil_01 — 土 (loam, small pebbles)</title>
  <defs>
    <radialGradient id="soil01-lit" cx="40%" cy="30%" r="80%">
      <stop offset="0" stop-color="#a37452"/>
      <stop offset="1" stop-color="#6b4423"/>
    </radialGradient>
  </defs>
  <rect width="512" height="512" fill="url(#soil01-lit)"/>
  <g fill="#5a3518" opacity="0.55">
    <ellipse cx="120" cy="80"  rx="30" ry="10"/>
    <ellipse cx="340" cy="60"  rx="24" ry="8"/>
    <ellipse cx="460" cy="180" rx="28" ry="10"/>
    <ellipse cx="60"  cy="240" rx="36" ry="10"/>
    <ellipse cx="260" cy="260" rx="30" ry="9"/>
    <ellipse cx="420" cy="320" rx="32" ry="10"/>
    <ellipse cx="160" cy="380" rx="40" ry="12"/>
    <ellipse cx="330" cy="440" rx="28" ry="9"/>
    <ellipse cx="80"  cy="460" rx="26" ry="8"/>
  </g>
  <g fill="#8b6140" opacity="0.5">
    <ellipse cx="60"  cy="60"  rx="18" ry="6"/>
    <ellipse cx="220" cy="140" rx="24" ry="7"/>
    <ellipse cx="390" cy="130" rx="20" ry="7"/>
    <ellipse cx="110" cy="180" rx="26" ry="8"/>
    <ellipse cx="300" cy="200" rx="22" ry="7"/>
    <ellipse cx="200" cy="310" rx="28" ry="8"/>
    <ellipse cx="360" cy="370" rx="20" ry="7"/>
    <ellipse cx="480" cy="400" rx="22" ry="7"/>
    <ellipse cx="40"  cy="360" rx="24" ry="7"/>
    <ellipse cx="260" cy="460" rx="28" ry="8"/>
  </g>
  <!-- pebbles -->
  <g fill="#3e2a18">
    <circle cx="88"  cy="112" r="3.2"/>
    <circle cx="204" cy="72"  r="2.6"/>
    <circle cx="306" cy="104" r="3.0"/>
    <circle cx="392" cy="232" r="3.4"/>
    <circle cx="156" cy="264" r="2.8"/>
    <circle cx="44"  cy="320" r="3.0"/>
    <circle cx="258" cy="332" r="2.8"/>
    <circle cx="342" cy="276" r="3.2"/>
    <circle cx="436" cy="416" r="3.4"/>
    <circle cx="192" cy="420" r="2.8"/>
    <circle cx="286" cy="400" r="3.0"/>
    <circle cx="380" cy="460" r="2.8"/>
  </g>
  <g fill="#c29876" opacity="0.55">
    <circle cx="140" cy="160" r="1.8"/>
    <circle cx="320" cy="180" r="1.8"/>
    <circle cx="250" cy="100" r="1.6"/>
    <circle cx="420" cy="240" r="1.8"/>
    <circle cx="80"  cy="380" r="1.6"/>
    <circle cx="380" cy="340" r="1.8"/>
    <circle cx="150" cy="440" r="1.6"/>
  </g>
</svg>
