<?xml version="1.0" encoding="UTF-8"?>
<svg xmlns="http://www.w3.org/2000/svg" viewBox="0 0 512 512" width="512" height="512">
  <title>water_01 — 水 (waves)</title>
  <defs>
    <linearGradient id="water01-base" x1="0" y1="0" x2="0" y2="1">
      <stop offset="0" stop-color="#5a90c4"/>
      <stop offset="1" stop-color="#2f5a89"/>
    </linearGradient>
    <radialGradient id="water01-highlight" cx="35%" cy="25%" r="70%">
      <stop offset="0" stop-color="#aaccec" stop-opacity="0.35"/>
      <stop offset="1" stop-color="#aaccec" stop-opacity="0"/>
    </radialGradient>
  </defs>
  <rect width="512" height="512" fill="url(#water01-base)"/>
  <rect width="512" height="512" fill="url(#water01-highlight)"/>
  <g stroke="#d8eaff" stroke-width="1.6" fill="none" opacity="0.55" stroke-linecap="round">
    <path d="M0 90  q 32 -14 64 0 t 64 0 t 64 0 t 64 0 t 64 0 t 64 0 t 64 0"/>
    <path d="M0 170 q 32 -14 64 0 t 64 0 t 64 0 t 64 0 t 64 0 t 64 0 t 64 0"/>
    <path d="M0 250 q 32 -14 64 0 t 64 0 t 64 0 t 64 0 t 64 0 t 64 0 t 64 0"/>
    <path d="M0 330 q 32 -14 64 0 t 64 0 t 64 0 t 64 0 t 64 0 t 64 0 t 64 0"/>
    <path d="M0 410 q 32 -14 64 0 t 64 0 t 64 0 t 64 0 t 64 0 t 64 0 t 64 0"/>
  </g>
  <g stroke="#5ba0dc" stroke-width="0.9" fill="none" opacity="0.6" stroke-linecap="round">
    <path d="M32 130 q 32 -10 64 0 t 64 0 t 64 0 t 64 0 t 64 0 t 64 0"/>
    <path d="M32 290 q 32 -10 64 0 t 64 0 t 64 0 t 64 0 t 64 0 t 64 0"/>
    <path d="M32 450 q 32 -10 64 0 t 64 0 t 64 0 t 64 0 t 64 0 t 64 0"/>
  </g>
  <g fill="#ffffff" opacity="0.35">
    <circle cx="120" cy="100" r="2"/>
    <circle cx="300" cy="180" r="2.4"/>
    <circle cx="440" cy="260" r="2"/>
    <circle cx="80"  cy="380" r="1.8"/>
    <circle cx="360" cy="420" r="2.2"/>
  </g>
</svg>
